<svg width="22" height="22" viewBox="0 0 22 22" fill="none" xmlns="http://www.w3.org/2000/svg">
<path d="M6 20.869H3C2.46957 20.869 1.96086 20.6691 1.58579 20.3133C1.21071 19.9575 1 19.475 1 18.9718V12.3317C1 11.8285 1.21071 11.346 1.58579 10.9902C1.96086 10.6344 2.46957 10.4345 3 10.4345H6M13 8.53733V4.74298C13 3.98824 12.6839 3.26441 12.1213 2.73072C11.5587 2.19704 10.7956 1.89722 10 1.89722L6 10.4345V20.869H17.28C17.7623 20.8741 18.2304 20.7138 18.5979 20.4175C18.9654 20.1211 19.2077 19.7088 19.28 19.2564L20.66 10.7191C20.7035 10.4472 20.6842 10.1696 20.6033 9.90544C20.5225 9.64132 20.3821 9.39703 20.1919 9.1895C20.0016 8.98197 19.7661 8.81615 19.5016 8.70354C19.2371 8.59093 18.9499 8.53422 18.66 8.53733H13Z" stroke="#6C757D" stroke-width="2" stroke-linecap="round" stroke-linejoin="round"/>
</svg>
