<svg width="22" height="22" viewBox="0 0 22 22" fill="current" xmlns="http://www.w3.org/2000/svg">
<path d="M16 1.89707H18.67C19.236 1.88758 19.7859 2.07553 20.2154 2.42526C20.645 2.77499 20.9242 3.26215 21 3.79425V10.4344C20.9242 10.9665 20.645 11.4536 20.2154 11.8033C19.7859 12.1531 19.236 12.341 18.67 12.3315H16M9.00003 14.2287V18.0231C9.00003 18.7778 9.3161 19.5016 9.87871 20.0353C10.4413 20.569 11.2044 20.8688 12 20.8688L16 12.3315V1.89707H4.72003C4.2377 1.8919 3.76965 2.05226 3.40212 2.34859C3.0346 2.64493 2.79235 3.05728 2.72003 3.50967L1.34003 12.047C1.29652 12.3189 1.31586 12.5965 1.39669 12.8606C1.47753 13.1247 1.61793 13.369 1.80817 13.5765C1.99842 13.7841 2.23395 13.9499 2.49846 14.0625C2.76297 14.1751 3.05012 14.2318 3.34003 14.2287H9.00003Z" stroke="#6C757D" stroke-width="2" stroke-linecap="round" stroke-linejoin="round"/>
</svg>
